<?xml version="1.0" encoding="utf-8"?>
<!-- Generator: Adobe Illustrator 18.0.0, SVG Export Plug-In . SVG Version: 6.00 Build 0)  -->
<!DOCTYPE svg PUBLIC "-//W3C//DTD SVG 1.1//EN" "http://www.w3.org/Graphics/SVG/1.1/DTD/svg11.dtd">
<svg version="1.1" id="Layer_1" xmlns="http://www.w3.org/2000/svg" xmlns:xlink="http://www.w3.org/1999/xlink" x="0px" y="0px"
	 viewBox="-256.8 242 1126.1 309.5" enable-background="new -256.8 242 1126.1 309.5" xml:space="preserve">
<g>
	<path fill="#424243" d="M590.1,440.2c4.8-2.2,8.6-5.1,12.3-8.1c15.7-12.9,25.1-29,26.7-49.8c0.7-9.7,2.9-19.4,5.8-28.8
		c3-9.8,10.5-13.3,20.2-9.7c2.8,1,3.2,3.2,3.3,5.5c0.4,9.7-1.1,19.2-2.9,28.8c-0.8,4.1-2.2,8.2-1.9,12.8c2.2-1.1,2.4-3,3.2-4.6
		c5.6-11,11.8-21.6,18.6-31.9c2-3.1,4.3-6,7.2-8.3c4.3-3.5,9-4.1,14-1.8c4.5,2.2,5.5,6.2,5.4,10.9c-0.3,9.9-3.3,19.3-5.5,28.9
		c-0.5,2.2-1.6,4.3-0.8,7.1c1.9-1.3,2.3-3.1,3.1-4.6c7.3-13.1,14.7-26.1,24-37.9c3.7-4.7,8.3-7,14.5-5.1c5.3,1.7,7.5,4.7,7.7,10.3
		c0.3,12.8-2.6,25.1-4.5,37.6c-1.1,7.3-1.9,14.6-1.5,21.9c0.1,2.3,0.4,4.7,1.1,6.9c1.4,4.7,3.5,5.7,8.3,4c4.9-1.8,9.1-4.8,13.1-8.2
		c1.7-1.5,1.4-3.1,1.3-5c-0.9-19.6,4.9-37.2,16.4-52.8c10.3-13.9,26-18.6,40.7-13.6c15,5.1,22.2,20.2,16.4,34.9
		c-7.3,18.5-21.5,29.6-39.7,36.1c-5.8,2.1-5.9,2.6-1.7,7.3c3.1,3.4,6.9,4.3,11.3,4.1c8.7-0.4,16.5-3.7,24-7.7
		c8.3-4.3,16-9.6,22.8-16c2.3-2.1,3.6-2.1,5.6,0.2c2.9,3.4,6.1,6.6,9.4,9.7c1.5,1.4,1.9,2.4,0.2,4c-16.8,16.2-35.2,29.8-59.1,32.9
		c-14.6,1.9-27.5-2-36.9-14c-2.1-2.6-3.3-2.2-5.4-0.4c-8.5,7.3-17.8,12.7-29.1,14.3c-10.6,1.5-15-1.3-17.6-12
		c-2.9-12.1-2.3-24.5-1.5-36.8c0.3-4.7,0.7-9.5,1-14.7c-2.1,1-2.2,2.6-2.7,3.8c-6.6,16.5-13.1,33.1-19.6,49.6
		c-0.9,2.4-2,4.6-3.9,6.3c-4.1,3.8-9.1,5.1-14.3,3.6c-4.8-1.3-6.2-5.7-7.1-10c-2.2-10.2,0.3-20.2,1.5-30.3
		c0.9-7.4,2.2-14.7,3.4-22.6c-3.1,1.2-3.7,3.6-4.6,5.6c-8.1,16.4-16.1,32.8-24,49.3c-2.3,4.7-5.4,8-10.8,8.5
		c-5.9,0.6-10.4-2.1-12.8-7.5c-0.7-1.5-1.2-3-1.9-4.9c-9.8,8.6-19.9,16.1-30.6,22.8c-2.9,1.8-3.6,4.9-4.1,8.1
		c-2.4,15.5-3.1,31.2-6.9,46.4c-2.2,9-6,17.3-12.2,24.3c-10.2,11.7-28.6,15.4-42.5,8.4c-9.8-4.9-14.5-15.7-11.8-28.2
		c3.2-15,11.7-27.5,21-39.3c7.5-9.6,15.7-18.6,25-26.6c4.4-3.8,2.1-9.3,4.2-15.1c-3.3,2.4-5.6,4.1-8,5.7c-15.5,10.4-31,6.7-39.9-9.7
		c-1.4-2.6-2.2-2.5-4.3-0.9c-8,6-16.3,11.4-26,14.6c-12.2,4-21.2,0.5-27.1-10.9c-5.7-11.1-6.7-22.8-3-34.9c2.8-9,6.6-17.6,10.6-26.2
		c-2.8-1-3.6,1.1-4.6,2.4c-16.2,18.7-30.5,38.7-40.1,61.7c-3.3,7.8-6.4,10.4-11.1,9.5c-6.6-1.3-7.6-6.8-8.5-12.1
		c-1.6-10.1-0.7-20.3-0.7-30.4c0.1-35.1,5.3-69.7,11.8-104.1c0-0.2,0.1-0.3,0.1-0.5c0.6-4.1,4.2-8.9,2.1-11.6
		c-1.7-2.2-7.4-1.5-11.4-1.8c-15.9-1.4-31.8-3.7-47.7-4.5c-2.1-0.1-3.6-0.4-4.2,2.6C343,336.8,328.3,384,316.6,432
		c-0.8,3.4-1.7,6.8-2.7,10.1c-1.6,5.3-4.5,9.6-9,12.9c-5.2,3.8-11.7,3.8-17.4,0.4c-5.4-3.3-5.5-8.5-4.5-13.7
		c2.5-12.4,4.5-24.9,8.5-36.9c12.5-37.7,25.2-75.3,37.9-113c0.4-1.1,0.7-2.2,1.1-3.3c0.7-1.9,0.4-2.8-1.9-2.6
		c-11.8,0.8-23.6,1.7-34.8,6c-7.2,2.7-11.8,7.2-12.6,15.6c-0.9,9.4-8.9,13.9-20.8,12.6c-8.8-0.9-14.1-7.1-13.8-15.9
		c0.4-11.4,5.9-19.9,15.3-26c11-7.2,23.5-10.2,36.2-12c35.2-4.9,70.4-4,105.6,0.5c6.4,0.8,12.9,1.4,19.3,2.2
		c2.5,0.4,3.9-0.4,5.1-2.7c3.3-6,7.7-11.3,12.9-15.8c6.6-5.6,14.2-8.5,22.9-8.4c11.6,0.1,17.9,5.9,19,17.4
		c1.5,15.8-2.8,30.7-7.6,45.4c-5.5,16.7-14.3,31.8-21.8,47.6c-4.1,8.6-8.4,17-12.5,25.5c-0.7,1.4-2.2,2.7-1,4.6
		c2.1-0.3,2.7-2.3,3.8-3.6c9.2-12.1,19.7-23,31.5-32.7c3.7-3.1,7.6-6,12.4-7.2c7.9-2,13,1.9,13.4,10.1c0.5,10.9-3.1,20.6-8.4,29.9
		c-4.5,7.8-8.8,15.7-10.3,24.7c-0.7,4.3-1,8.6-0.5,12.9c0.6,5.7,3.1,7.3,8.4,5.6c9.2-2.9,16.1-9.2,22.6-16c2.2-2.3,1.5-5.7,1.9-8.6
		c2.4-15.7,5.6-31.1,13-45.3c3.6-6.9,9.1-10.5,16.8-10.6c7.3-0.1,11.1,4.5,8.6,11.4c-5.6,15.6-8.5,31.8-10.8,48.1
		c-1,6.9-2.2,13.8-0.6,20.9c0.8,3.4,2,6.5,5.6,7.6c3.9,1.2,7.1-0.5,9.7-3.5c6-6.9,8.7-15.2,10.6-23.9c3.1-14.3,6-28.6,9.1-43
		c1.9-8.9,10.6-15.9,19.8-16.2c6.7-0.2,9.5,3,8,9.7c-6.3,28.1-8.5,56.9-14.6,85.1C590,438.6,590.1,439.2,590.1,440.2z M426.3,368.8
		c3.7-3.4,5-8,6.8-12.2c9.4-22.3,20.1-44.2,26.3-67.8c1.9-7.4,3.8-14.8,2.8-22.6c-0.2-1.2-0.3-2.5-1.5-3s-2.2,0.5-3,1.3
		c-2.4,2.4-4.2,5.2-5.8,8.1c-9.7,16.7-16.6,34.3-19,53.6C430.9,340.5,428.5,354.6,426.3,368.8z M562.8,479.2
		c-7.3,5.6-12.1,12.1-16.3,19.1c-4.9,8.1-9.4,16.4-11.8,25.7c-1.2,4.8,0.6,6.9,5.5,7c6.7,0.2,10.3-4.1,12.8-9.4
		C558.9,508.5,562.1,494.6,562.8,479.2z M788.8,395.2c-0.9,4.1,1,4.8,4.3,3.8c10.8-3.3,18.5-10.1,23.4-20.2c2-4.1,0.5-11.3-2.5-13.4
		c-4.1-2.8-8-0.7-11.7,1.1c-2.3,1.1-4.1,2.8-5.4,5C792.5,378.9,789.8,386.8,788.8,395.2z"/>
	<path fill="#424243" d="M166.9,426.5c-6.2,5.1-12.3,9.5-18.8,13.1c-13.9,7.8-28.4,13.2-44.7,10.5c-9.9-1.6-17.9-6.4-23.6-14.5
		c-2.3-3.3-3.6-2.9-6.5-0.9C63.1,442,52,447.8,39.5,450.1c-13.5,2.5-18.7,0-25.6-11.9c-1.5-2.5-2.5-0.4-3.5,0.1
		c-8.2,4.8-16.7,9-26.2,10.7c-11.6,2.1-18.1-1.7-22.1-12.6c-0.9-2.3-1.5-4.7-2.4-7.4c-4.2,4.5-8.1,8.8-12.7,12.4
		c-4.8,3.7-9.8,6.9-15.7,8.5c-13,3.7-22.8-2.5-24.3-15.9c-1-8.5-1-17.1,1.3-25.3c3.6-12.9,5.4-26,7.6-39.2c1.2-7.1,3.3-13.9,7.4-20
		c2.5-3.7,5.7-6.9,10.4-6.9c8.9,0.1,13.1-0.3,10.9,11.1c-3.9,20.1-7,40.3-10.5,60.5c-0.9,5.3,1,11.2,4,12.6c3.2,1.5,8.1-0.6,12-5.2
		c4.1-4.8,5.5-10.5,6.6-16.5c3.6-17.9,7.4-35.8,10.8-53.8c0.8-4.5,3.2-6.7,7.2-7.9c3.9-1.2,7.9-1.3,11.9-0.6
		c5.7,1.1,8.5,4.5,7.5,10.3c-2.8,17.4-5.8,34.8-8.8,52.1c-1,5.6-1.3,11.3-0.4,16.9c0.8,5,3.6,6.8,8.1,4.5c6.6-3.5,13-7.5,19.5-11.2
		c1.9-1.1,2-3,2.3-4.7c3.3-19.2,9.8-37.6,14.4-56.5c0.7-2.9,2.6-5,5-6.6c4.3-2.8,9.1-4,14.2-4.1c6.6-0.2,9.2,2.4,7.6,8.9
		c-3.2,13.2-7,26.3-10.6,39.5c-2.6,9.7-5.2,19.3-4.7,29.5c0.4,8.3,3.7,10.4,11.3,7c6.6-2.9,12.1-7.6,17.7-12.1
		c1.8-1.5,1.2-3.3,1.2-5c-0.9-18.1,4.4-34.6,14.1-49.6c9-14,22-21,39.2-17.8c17.4,3.2,26.7,20,20.1,36.4
		c-7.4,18.4-21.7,29.4-40,35.7c-5.3,1.8-5.3,2-1.9,6.3c2.9,3.8,6.8,5.1,11.4,5c5.6-0.2,10.8-1.6,16-3.7c5.1-2.1,9.8-5,14.7-7.4
		c12.5-6.3,19.7-14.5,16.2-30.1c-2.2-9.8-0.3-20.3,1.2-30.3c0.6-4.4,0.1-6.8-5-7.1c-5.5-0.3-10.8-1.6-16.3-2.4
		c-4.3-0.6-6.5-2.9-6.6-7.3c-0.1-4.7,3.4-5.4,6.6-5.9c6.3-1.1,12.6-1.3,18.9-0.5c4.7,0.6,6.6-0.9,7.6-5.7
		c3.3-16.2,8.6-31.8,16.2-46.5c3.5-6.7,7.5-13,13.1-18.2c11.1-10.4,24-8.1,30.7,5.5c5.5,11.2,5.8,22.7,1.6,34.4
		c-2.8,7.9-7,15.1-11.1,22.3c-2.1,3.6-4.1,7.1-6.6,11.4c10.3,0.4,20,0.8,29.7,1.2c6.6,0.2,8.2,1.6,8.4,7.1c0.1,5.7-3,9.1-8.7,9.2
		c-11.8,0.1-23.7,0.1-35.5,0c-3.1,0-4.9,1.1-7.1,3.3c-8.6,8.7-11.3,19-10.6,30.8c0.4,7.8-0.8,15.6,0,23.5c1.3,12.6,9.9,18.4,21.8,14
		c14.2-5.2,27-12.9,37.3-24.2c1.8-2,3.9-2.9,6.6-3c5.4-0.1,10.4,3.8,12.1,9.4c1.6,5.3,0,10.3-4.8,13c-15.2,8.5-30,17.9-45.8,25.4
		c-3.3,1.6-6.7,2.9-10.2,3.9c-11.7,3.5-21.7,0.3-29.3-9.3C171.3,436.3,169.3,431.7,166.9,426.5z M96.7,395.3
		c1.1,1.3-1.7,4.4,2.5,4.1c9.4-0.6,24.6-13.6,26.1-22.9c0.7-4.2,0.1-8.6-3.6-11.3c-3.4-2.5-7-0.6-10.4,0.8c-2.7,1.1-4.8,3-6.3,5.5
		C100.7,378.8,98.2,386.9,96.7,395.3z M213.9,287.7c-0.4-2.4-0.2-5.9-4.1-7c-4-1.2-5.6,2-7.2,4.7c-1.5,2.6-2.7,5.3-3.8,8.1
		c-4.7,11.8-7.4,24.1-10.2,36.4c-0.3,1.5-1.5,3.2,1.2,3.9c2.1,0.5,3.3,0,4.3-2.1c5.8-11.6,11.8-23.1,17.5-34.7
		C213,294.3,214,291.5,213.9,287.7z"/>
	<path fill="#424243" d="M-174.5,467.6c7,6.8,12.2,14.6,19.4,20.6c8.5,7,16.7,7.6,26.3,2c5.4-3.1,10-7.2,14.2-11.7
		c4.1-4.4,7.8-4.5,11.8-0.3c5.6,5.7,5.5,16.1-0.2,21.4c-11.8,10.9-24.9,19.4-41.2,21.9c-14.1,2.2-25.2-2.5-33.1-14.4
		c-5.2-7.8-7.8-16.8-11.4-25.4c-1.1-2.6-2.1-5.3-3.4-7.8c-1.1-2.1-2.5-3.6-5.2-4.2c-33.3-7.4-51.7-29.5-57-61.8
		c-7.6-45.9,2.2-88.5,30.6-125.8c16.5-21.6,38.7-33.7,66.7-33.2c28.7,0.5,51.2,17.4,61.2,46.5c7.8,22.5,7.4,45.5,3.6,68.6
		c-3.3,20-9.5,39.1-19.7,56.7c-11.6,20-26.9,35.9-49.5,43.5C-165.5,465.5-169.6,466.3-174.5,467.6z M-225.7,381.6
		c0.4,17.6,2.5,32.6,11.4,45.8c12,17.8,33.4,21.9,51.2,10c8.2-5.5,14.4-12.8,19.1-21.4c17.5-32.3,25-66.7,21.8-103.3
		c-0.9-10.7-3.8-20.9-10.2-29.9c-7.6-10.6-19.2-15-32-12c-12.5,3-21.6,11-29.1,20.7C-214.5,318.6-224,349.8-225.7,381.6z"/>
	<path fill="#128950" d="M34.7,311.9c-0.2-7.6,4.4-13.4,11.1-18c8.5-5.7,17.9-9.4,27.5-12.8c3.6-1.3,7.6-1.8,10.8-3.7
		c4.2-2.5,4.4,0,4.5,2.8c0.7,23.8-11.2,45-41.2,45.8C38.9,326.2,34.5,321.3,34.7,311.9z"/>
</g>
</svg>
