<?xml version="1.0" encoding="utf-8"?>
<!-- Generator: Adobe Illustrator 18.0.0, SVG Export Plug-In . SVG Version: 6.00 Build 0)  -->
<!DOCTYPE svg PUBLIC "-//W3C//DTD SVG 1.1//EN" "http://www.w3.org/Graphics/SVG/1.1/DTD/svg11.dtd">
<svg version="1.1" xmlns="http://www.w3.org/2000/svg" xmlns:xlink="http://www.w3.org/1999/xlink" x="0px" y="0px"
	 viewBox="0 0 101.1 151.6" enable-background="new 0 0 101.1 151.6" xml:space="preserve">
<g id="Layer_2">
	<rect x="18.4" y="40.6" fill="#CCCCCC" stroke="#CCCCCC" stroke-miterlimit="10" width="60.5" height="66.8"/>
	<rect x="-106.1" y="-69.4" fill="#CCCCCC" stroke="#CCCCCC" stroke-miterlimit="10" width="264" height="253.1"/>
</g>
<g id="Layer_3">
	<rect x="22.6" y="39.2" fill="#FFFFFF" stroke="#CCCCCC" stroke-miterlimit="10" width="55" height="67.2"/>
</g>
<g id="Layer_1">
	<g>
		<path fill="#CCCCCC" d="M50.6,23.8c27.8,0.1,50.5,22.8,50.4,50.7c-0.1,26.5-21.5,50.3-50.6,50.4C22.7,124.8,0,102.1,0,74.2
			C0,46.4,22.8,23.7,50.6,23.8z M38.7,58.1c6.4-3,12.5-5.8,18.6-8.7c1.3-0.6,3-1.5,2.3-3.3c-0.8-2.1-2.6-1.5-4.2-0.7
			c-7,3.3-13.9,6.5-20.9,9.7c-2.3,1-2.5,2.7-2.5,4.8c0.1,11,0,21.9,0,32.9c0,6.4,7.7,11.5,13.8,9c7-2.9,14-6.1,21-9
			c2.4-1,3.3-2.3,3.2-4.8c-0.1-11.3,0-22.6-0.1-33.9c0-4.5-1.2-5.3-5.3-3.5c-6.2,2.7-12.4,5.6-18.6,8.3
			C43.9,59.8,41.5,61.1,38.7,58.1z"/>
		<path opacity="0.55" fill="#029859" d="M62.8,64.9c4.1,5.6,1.9,15-5.6,18.2c-2.2,1-4.5,2-6.4,0c-2.1-2.1-1.9-4.8-0.5-7.4
			C51.7,72.8,57,68.2,62.8,64.9z"/>
	</g>
</g>
</svg>
