<?xml version="1.0" encoding="utf-8"?>
<!-- Generator: Adobe Illustrator 18.0.0, SVG Export Plug-In . SVG Version: 6.00 Build 0)  -->
<!DOCTYPE svg PUBLIC "-//W3C//DTD SVG 1.1//EN" "http://www.w3.org/Graphics/SVG/1.1/DTD/svg11.dtd">
<svg version="1.1" id="Layer_1" xmlns="http://www.w3.org/2000/svg" xmlns:xlink="http://www.w3.org/1999/xlink" x="0px" y="0px"
	 viewBox="0 0 101.1 101" enable-background="new 0 0 101.1 101" xml:space="preserve">
<g>
	<path fill="#029859" d="M50.6,0c27.8,0.1,50.5,22.8,50.4,50.7C101,77.1,79.5,101,50.5,101C22.7,101,0,78.3,0,50.4
		C0,22.7,22.8-0.1,50.6,0z M38.7,34.3c6.4-3,12.5-5.8,18.6-8.7c1.3-0.6,3-1.5,2.3-3.3c-0.8-2.1-2.6-1.5-4.2-0.7
		c-7,3.3-13.9,6.5-20.9,9.7c-2.3,1-2.5,2.7-2.5,4.8c0.1,11,0,21.9,0,32.9c0,6.4,7.7,11.5,13.8,9c7-2.9,14-6.1,21-9
		c2.4-1,3.3-2.3,3.2-4.8c-0.1-11.3,0-22.6-0.1-33.9c0-4.5-1.2-5.3-5.3-3.5c-6.2,2.7-12.4,5.6-18.6,8.3C43.9,36,41.5,37.4,38.7,34.3z
		"/>
	<path fill="#029859" d="M62.8,41.1c4.1,5.6,1.9,15-5.6,18.2c-2.2,1-4.5,2-6.4,0c-2.1-2.1-1.9-4.8-0.5-7.4
		C51.7,49,57,44.4,62.8,41.1z"/>
</g>
</svg>
